<svg xmlns="http://www.w3.org/2000/svg" width="495.911" height="511.999" viewBox="0 0 495.911 511.999">
  <g id="africa_1_" data-name="africa (1)" transform="translate(-8.045 0)">
    <path id="Path_1" data-name="Path 1" d="M484.415,184.915H459.564c-8.48,0-14.956-4.4-18.082-11.965h0L402.675,66.74c-3.687-10.089-13.155-15.518-23.818-16.817h0C350.175,46.416,312.888,37.1,299.323,37.1c-16.71,0-26.993,5.142-51.415,5.142S210.631,11.39,201.633,2.392s-52.7,10.283-78.408,10.283S69.239,29.385,69.239,51.236,44.817,87.227,17.824,114.219s8.355,91.9,28.278,111.827,46.273,24.422,77.122,11.568,41.775-7.07,56.556,7.712,15.424,35.991,33.42,53.986,9,84.835,9,114.4,24.422,66.839,43.7,86.12,21.851,12.854,51.415,0,52.7-74.552,79.693-101.544,21.851-66.839,21.851-89.976,50.13-68.125,75.837-93.832S484.415,184.915,484.415,184.915Z" fill="#622c7d"/>
    <path id="Path_4" data-name="Path 4" d="M487.629,360.369c9.48,4.4,12.211,14.782,5.784,29.564s17.031,42.1-5.784,64.911-28.921,13.5-42.417,0-15.1-22.815-7.712-30.206,6.748-33.741,16.067-43.06S469.634,352.014,487.629,360.369Z" fill="#622c7d"/>
  </g>
</svg>
